<svg width="1587" height="321" viewBox="0 0 1587 321" fill="none" xmlns="http://www.w3.org/2000/svg">
<g clip-path="url(#clip0_3311_2)">
<path d="M149.125 225.375H203.047L162.606 318.473H135.645L0 3.37183H53.4986L104.051 120.903L149.125 225.375ZM228.743 165.557H174.823L215.684 71.6156L244.751 3.37183H298.672L228.743 165.557Z" fill="white"/>
<path d="M301.609 4.63062H505.499V53.0754H350.054V122.583H301.609V4.63062ZM350.054 172.291V270.023H505.499V318.468H301.609V172.291H350.054ZM485.277 123.846V172.291H400.604V123.846H485.277Z" fill="white"/>
<path d="M758.673 102.577C758.673 114.681 756.561 126.154 752.342 136.989C748.123 147.823 742.284 157.539 734.832 166.122C727.375 174.705 718.582 181.814 708.458 187.44C698.327 193.069 687.356 196.728 675.541 198.414L758.252 318.051H699.276L617.13 199.676L565.737 199.257V318.894H516.449V70.7714H565.737V150.391H661.5C668.22 150.391 674.454 149.133 680.195 146.619C685.933 144.103 690.969 140.675 695.314 136.343C699.652 132.012 703.08 126.978 705.601 121.244C708.123 115.511 709.385 109.291 709.385 102.577C709.385 95.8635 708.123 89.5047 705.594 83.4891C703.067 77.4785 699.624 72.3058 695.273 67.9744C690.916 63.6429 685.795 60.1479 679.898 57.4891C674 54.8304 667.82 53.501 661.362 53.501L589.748 53.0796V4.21338H661.362C674.843 4.21338 687.414 6.82006 699.092 12.0253C710.768 17.2321 721.063 24.2695 729.988 33.1357C738.913 42.0004 745.924 52.4141 751.025 64.3735C756.12 76.3411 758.673 89.0702 758.673 102.577Z" fill="white"/>
<path d="M925.487 135.222C938.125 135.222 949.985 137.618 961.082 142.404C972.174 147.189 981.862 153.732 990.149 162.039C998.43 170.345 1004.96 180.054 1009.74 191.171C1014.51 202.287 1016.9 214.182 1016.9 226.846C1016.9 239.516 1014.5 251.411 1009.73 262.529C1004.94 273.646 998.397 283.426 990.104 291.871C981.804 300.316 972.101 306.932 960.991 311.717C949.879 316.503 937.993 318.891 925.336 318.891H850.232C837.568 318.891 825.688 316.509 814.576 311.73C803.466 306.958 793.757 300.357 785.464 291.931C777.164 283.506 770.621 273.751 765.842 262.653C761.057 251.562 758.668 239.695 758.668 227.057H807.956C807.956 232.902 809.073 238.392 811.312 243.539C813.55 248.685 816.636 253.201 820.559 257.091C824.482 260.988 828.965 264.042 834.008 266.266C839.05 268.492 844.506 269.604 850.39 269.604H925.178C931.055 269.604 936.519 268.492 941.56 266.253C946.602 264.016 951.085 260.942 955.008 257.032C958.931 253.122 962.011 248.581 964.249 243.407C966.488 238.241 967.612 232.718 967.612 226.846C967.612 220.982 966.488 215.466 964.242 210.291C961.992 205.119 958.905 200.649 954.974 196.877C951.038 193.105 946.55 190.105 941.495 187.866C936.439 185.629 930.962 184.509 925.066 184.509L850.081 184.088C837.719 184.088 825.997 181.706 814.907 176.927C803.808 172.154 794.192 165.698 786.049 157.549C777.901 149.407 771.371 139.856 766.46 128.904C761.545 117.951 758.945 106.301 758.668 93.9396H807.956C808.232 99.5012 809.495 104.786 811.747 109.79C813.991 114.791 817.077 119.168 821.015 122.921C824.945 126.673 829.439 129.595 834.494 131.681C839.55 133.767 844.882 134.808 850.502 134.808L925.487 135.222ZM844.184 0.841309H917.483C930.121 0.841309 941.994 3.22995 953.119 8.00234C964.236 12.7812 974.044 19.3093 982.541 27.5898C991.038 35.8768 997.693 45.5664 1002.51 56.657C1007.33 67.7557 1009.74 79.6159 1009.74 92.2539H960.451C960.451 86.4157 959.325 80.9258 957.081 75.7791C954.829 70.6374 951.742 66.1888 947.813 62.4366C943.877 58.6844 939.316 55.6905 934.122 53.4646C928.922 51.2403 923.38 50.1273 917.483 50.1273H844.184V0.841309Z" fill="white"/>
<path d="M1168.98 0C1191.16 0 1212.02 4.21266 1231.54 12.638C1251.05 21.0633 1268.11 32.5818 1282.73 47.1805C1297.32 61.7873 1308.84 78.9194 1317.27 98.5736C1325.69 118.236 1329.91 139.159 1329.91 161.342C1329.91 181.846 1326.32 201.152 1319.16 219.265C1312 237.38 1302.24 253.532 1289.88 267.71C1277.53 281.895 1262.85 293.69 1245.86 303.095C1228.87 312.508 1210.54 318.471 1190.89 321V272.975C1203.8 270.448 1215.88 265.814 1227.12 259.074C1238.34 252.335 1248.04 243.981 1256.18 234.01C1264.33 224.044 1270.78 212.88 1275.56 200.519C1280.33 188.164 1282.73 175.106 1282.73 161.342C1282.73 145.617 1279.77 130.872 1273.87 117.11C1267.98 103.353 1259.83 91.2743 1249.44 80.8817C1239.05 70.4941 1226.97 62.3454 1213.21 56.4486C1199.45 50.5503 1184.71 47.6019 1168.98 47.6019C1153.25 47.6019 1138.51 50.5503 1124.75 56.4486C1110.99 62.3454 1098.91 70.4941 1088.52 80.8817C1078.13 91.2743 1069.99 103.353 1064.09 117.11C1058.19 130.872 1055.24 145.617 1055.24 161.342C1055.24 174.823 1057.56 187.742 1062.19 200.097C1066.83 212.459 1073.15 223.551 1081.15 233.377C1089.15 243.211 1098.63 251.492 1109.59 258.232C1120.54 264.971 1132.47 269.75 1145.39 272.555V320.579C1126.01 317.773 1107.9 311.665 1091.05 302.254C1074.2 292.847 1059.67 281.124 1047.45 267.078C1035.23 253.038 1025.61 236.958 1018.59 218.843C1011.57 200.73 1008.06 181.562 1008.06 161.342C1008.06 139.159 1012.27 118.236 1020.7 98.5736C1029.12 78.9194 1040.64 61.7873 1055.24 47.1805C1069.84 32.5818 1086.9 21.0633 1106.43 12.638C1125.94 4.21266 1146.79 0 1168.98 0Z" fill="white"/>
<path d="M1495.46 135.222C1508.09 135.222 1519.96 137.618 1531.05 142.404C1542.14 147.189 1551.84 153.732 1560.12 162.039C1568.4 170.345 1574.93 180.054 1579.71 191.171C1584.48 202.287 1586.87 214.182 1586.87 226.846C1586.87 239.516 1584.48 251.411 1579.7 262.529C1574.91 273.646 1568.37 283.426 1560.08 291.871C1551.77 300.316 1542.07 306.932 1530.96 311.717C1519.85 316.503 1507.96 318.891 1495.31 318.891H1420.2C1407.54 318.891 1395.66 316.509 1384.55 311.73C1373.44 306.958 1363.73 300.357 1355.44 291.931C1347.14 283.506 1340.59 273.751 1335.81 262.653C1331.03 251.562 1328.64 239.695 1328.64 227.057H1377.93C1377.93 232.902 1379.05 238.392 1381.28 243.539C1383.52 248.685 1386.61 253.201 1390.53 257.091C1394.46 260.988 1398.94 264.042 1403.98 266.266C1409.02 268.492 1414.48 269.604 1420.36 269.604H1495.15C1501.03 269.604 1506.49 268.492 1511.53 266.253C1516.57 264.016 1521.06 260.942 1524.98 257.032C1528.9 253.122 1531.98 248.581 1534.22 243.407C1536.46 238.241 1537.58 232.718 1537.58 226.846C1537.58 220.982 1536.46 215.466 1534.21 210.291C1531.96 205.119 1528.88 200.649 1524.95 196.877C1521.01 193.105 1516.52 190.105 1511.47 187.866C1506.41 185.629 1500.94 184.509 1495.04 184.509L1420.05 184.088C1407.69 184.088 1395.97 181.706 1384.88 176.927C1373.78 172.154 1364.16 165.698 1356.02 157.549C1347.87 149.407 1341.34 139.856 1336.43 128.904C1331.51 117.951 1328.91 106.301 1328.64 93.9396H1377.93C1378.2 99.5012 1379.47 104.786 1381.72 109.79C1383.96 114.791 1387.05 119.168 1390.99 122.921C1394.91 126.673 1399.41 129.595 1404.47 131.681C1409.52 133.767 1414.85 134.808 1420.47 134.808L1495.46 135.222ZM1414.15 0.841309H1487.45C1500.09 0.841309 1511.97 3.22995 1523.09 8.00234C1534.21 12.7812 1544.02 19.3093 1552.51 27.5898C1561.01 35.8768 1567.66 45.5664 1572.48 56.657C1577.3 67.7557 1579.71 79.6159 1579.71 92.2539H1530.42C1530.42 86.4157 1529.3 80.9258 1527.05 75.7791C1524.8 70.6374 1521.71 66.1888 1517.79 62.4366C1513.85 58.6844 1509.29 55.6905 1504.1 53.4646C1498.89 51.2403 1493.35 50.1273 1487.45 50.1273H1414.15V0.841309Z" fill="white"/>
</g>
<defs>
<clipPath id="clip0_3311_2">
<rect width="1587" height="321" fill="white"/>
</clipPath>
</defs>
</svg>
